<?xml version="1.0" encoding="UTF-8"?>
<svg id="Capa_1" data-name="Capa 1" xmlns="http://www.w3.org/2000/svg" viewBox="0 0 84.04 83.91">
  <defs>
    <style>
      .cls-1, .cls-2 {
        fill: #fff;
      }

      .cls-2 {
        font-family: NotoSans-Black, 'Noto Sans';
        font-size: 10.8px;
        font-weight: 800;
      }

      .cls-3 {
        fill: #00a652;
      }
    </style>
  </defs>
  <path class="cls-3" d="M81.15,83.91H2.89c-1.59,0-2.89-1.3-2.89-2.89V2.89C0,1.3,1.3,0,2.89,0h78.26c1.59,0,2.89,1.3,2.89,2.89v78.13c0,1.59-1.3,2.89-2.89,2.89Z"/>
  <g>
    <path class="cls-1" d="M78.81,82.23H5.23c-1.92,0-3.48-1.56-3.48-3.48V5.16c0-1.92,1.56-3.48,3.48-3.48h73.58c1.92,0,3.48,1.56,3.48,3.48v73.58c0,1.92-1.56,3.48-3.48,3.48ZM5.23,3.93c-.68,0-1.24.55-1.24,1.24v73.58c0,.68.55,1.24,1.24,1.24h73.58c.68,0,1.24-.55,1.24-1.24V5.16c0-.68-.55-1.24-1.24-1.24H5.23Z"/>
    <polygon class="cls-1" points="76.23 54.39 7.64 54.39 7.64 18.55 42.35 5.69 76.27 18.56 76.27 24.1 74.13 24.1 74.13 20.03 42.34 7.97 9.78 20.04 9.78 52.25 76.23 52.25 76.23 54.39"/>
    <g>
      <circle class="cls-1" cx="20.59" cy="28" r="2.32"/>
      <path class="cls-1" d="M27.41,38.98l-2.73-7.55c-.2-.55-.74-.87-1.3-.81h0s-5.63-.01-5.63-.01h0c-.53-.02-1.04.3-1.23.82l-2.73,7.55c-.23.65.1,1.36.75,1.6.14.05.28.07.42.07.51,0,.99-.32,1.17-.82l1.55-4.28s.07-.03.07.01v14.15c0,.71.57,1.28,1.28,1.28h0c.71,0,1.28-.57,1.28-1.28v-9.08s.02-.03.03-.03h.45s.03.02.03.03v9.08c0,.71.57,1.28,1.28,1.28h0c.71,0,1.28-.57,1.28-1.28v-14.34s.05-.05.07-.01l1.62,4.47c.18.51.66.82,1.17.82.14,0,.28-.02.42-.07.65-.23.98-.95.75-1.6Z"/>
    </g>
    <g>
      <circle class="cls-1" cx="31.89" cy="28" r="2.32"/>
      <path class="cls-1" d="M38.71,38.98l-2.73-7.55c-.2-.55-.74-.87-1.3-.81h0s-5.63-.01-5.63-.01h0c-.53-.02-1.04.3-1.23.82l-2.73,7.55c-.23.65.1,1.36.75,1.6.14.05.28.07.42.07.51,0,.99-.32,1.17-.82l1.55-4.28s.07-.03.07.01v14.15c0,.71.57,1.28,1.28,1.28h0c.71,0,1.28-.57,1.28-1.28v-9.08s.02-.03.03-.03h.45s.03.02.03.03v9.08c0,.71.57,1.28,1.28,1.28h0c.71,0,1.28-.57,1.28-1.28v-14.34s.05-.05.07-.01l1.62,4.47c.18.51.66.82,1.17.82.14,0,.28-.02.42-.07.65-.23.98-.95.75-1.6Z"/>
    </g>
    <g>
      <circle class="cls-1" cx="43.34" cy="28" r="2.32"/>
      <path class="cls-1" d="M50.15,38.98l-2.73-7.55c-.2-.55-.74-.87-1.3-.81h0s-5.63-.01-5.63-.01h0c-.53-.02-1.04.3-1.23.82l-2.73,7.55c-.23.65.1,1.36.75,1.6.14.05.28.07.42.07.51,0,.99-.32,1.17-.82l1.55-4.28s.07-.03.07.01v14.15c0,.71.57,1.28,1.28,1.28h0c.71,0,1.28-.57,1.28-1.28v-9.08s.02-.03.03-.03h.45s.03.02.03.03v9.08c0,.71.57,1.28,1.28,1.28h0c.71,0,1.28-.57,1.28-1.28v-14.34s.05-.05.07-.01l1.62,4.47c.18.51.66.82,1.17.82.14,0,.28-.02.42-.07.65-.23.98-.95.75-1.6Z"/>
    </g>
    <g>
      <circle class="cls-1" cx="65.2" cy="28" r="2.32"/>
      <path class="cls-1" d="M73.95,37.6l-1.63-4.1c-.09-.22-.25-.41-.45-.53l-3.86-2.26c-.23-.14-.5-.17-.74-.13h0s-1.75.34-1.75.34c-.01,0-.03,0-.04,0h-.03s0,0,0,0c-.25.06-.48.21-.63.44l-4.1,6.08c-.33.49-.2,1.15.29,1.49.18.12.39.18.6.18.34,0,.68-.17.89-.47l3.18-4.71.28,4.95h.03s-2.32,4.29-2.32,4.29c-.05.1-.09.2-.11.32l-1.18,6.4c-.11.58.28,1.14.86,1.25.07.01.13.02.2.02.51,0,.96-.36,1.05-.88l1.15-6.23,2.13-3.93.34,4.83c.01.19.08.37.18.53l3.13,4.62c.21.31.54.47.89.47.21,0,.41-.06.6-.18.49-.33.62-1,.29-1.49l-2.97-4.39-.42-6h.03s-.52-4.59-.52-4.59l1.19.7,1.5,3.76c.17.42.57.67.99.67.13,0,.27-.02.4-.08.55-.22.82-.84.6-1.39Z"/>
    </g>
    <g>
      <text class="cls-2" transform="translate(17.64 67.85)"><tspan x="0" y="0">REFUGIO</tspan></text>
      <text class="cls-2" transform="translate(12.12 77.86)"><tspan x="0" y="0">TEMPORAL</tspan></text>
    </g>
  </g>
</svg>